<?xml version="1.0" encoding="UTF-8" standalone="no"?>
<!-- Created with Inkscape (http://www.inkscape.org/) and export_objects.py -->

<svg
   version="1.1"
   id="svg1"
   width="128"
   height="128"
   viewBox="0 0 128 128"
   sodipodi:docname="clip-note-symbolic.svg"
   inkscape:version="1.1.1 (3bf5ae0d25, 2021-09-20)"
   inkscape:export-filename="/home/eexpss/project/gnome-shell-clip-note/clip-note-128.png"
   inkscape:export-xdpi="96"
   inkscape:export-ydpi="96"
   xmlns:inkscape="http://www.inkscape.org/namespaces/inkscape"
   xmlns:sodipodi="http://sodipodi.sourceforge.net/DTD/sodipodi-0.dtd"
   xmlns="http://www.w3.org/2000/svg"
   xmlns:svg="http://www.w3.org/2000/svg">
  <defs
     id="defs9" />
  <sodipodi:namedview
     objecttolerance="10"
     gridtolerance="10"
     guidetolerance="10"
     id="namedview"
     showgrid="true"
     inkscape:zoom="2.5996111"
     inkscape:cx="8.4628043"
     inkscape:cy="43.275704"
     inkscape:window-width="1920"
     inkscape:window-height="1008"
     inkscape:window-x="0"
     inkscape:window-y="34"
     inkscape:window-maximized="1"
     inkscape:current-layer="svg1"
     pagecolor="#ffffff"
     bordercolor="#666666"
     borderopacity="1.0"
     inkscape:pageshadow="2"
     inkscape:pageopacity="0.0"
     inkscape:pagecheckerboard="0"
     fit-margin-top="0"
     fit-margin-left="0"
     fit-margin-right="0"
     fit-margin-bottom="0"
     inkscape:snap-global="true">
    <inkscape:grid
       type="xygrid"
       id="grid"
       originx="-1.9872298"
       originy="-0.95865712" />
  </sodipodi:namedview>
  <path
     id="path1787"
     d="m 77.866581,4.5493318 c -2.249534,-0.029668 -4.54472,0.1967658 -6.700723,0.030877 H 23.982869 C 18.982947,4.9406769 15.859214,10.283772 16.571929,14.970965 L 16.81896,115.92959 c 0.450585,4.94758 5.472863,8.13103 10.128286,7.42637 l 77.073774,-0.24703 c 4.9347,-0.45058 8.11361,-5.47605 7.41095,-10.14372 L 111.18493,35.520887 C 110.44107,30.783181 107.42211,29.880348 103.0329,24.867661 98.643694,19.854972 84.258509,6.0623988 84.258517,6.0623988 82.319973,4.8623019 80.116106,4.5789954 77.866581,4.5493318 Z M 53.209762,30.966247 c 1.829652,0.10497 3.60476,0.429676 5.295735,0.957246 L 55.186012,44.2905 c -0.627183,-0.187728 -1.291203,-0.314998 -1.97625,-0.385985 z m -5.465567,0.355108 3.3658,12.536841 c -0.754691,0.06087 -1.487247,0.202795 -2.176959,0.416863 h -0.01581 L 42.463898,33.081452 c 1.658485,-0.799218 3.421728,-1.398713 5.280297,-1.760097 z m 15.624729,2.779103 c 1.521579,0.917845 2.924108,2.015956 4.184094,3.257726 l -8.87769,8.877689 c -0.494062,-0.457351 -1.041729,-0.843175 -1.63658,-1.173399 z m -25.675822,2.099766 9.078406,9.062963 c -0.648764,0.398578 -1.249536,0.867759 -1.775535,1.40499 L 34.543456,39.488828 c 0.932656,-1.20232 1.994274,-2.300621 3.149646,-3.288604 z m 33.179401,5.295735 c 0.940972,1.510966 1.710248,3.143538 2.269606,4.86343 l -12.258937,3.288605 c -0.236676,-0.667886 -0.533667,-1.294421 -0.895487,-1.852735 z m -9.495268,10.205483 h 12.783876 c 0.02767,0.412593 0.04269,0.832366 0.04664,1.250596 l 0.185293,19.839706 8.074832,-8.213793 c 1.199877,-1.171656 2.920219,-2.00755 4.554641,-2.022569 l 6.361054,-0.06174 0.06166,6.361057 c 0.01818,1.965627 -0.541256,3.503746 -1.744658,4.770793 L 68.247797,97.078006 44.378395,74.073217 C 43.152076,72.828938 42.55928,71.298915 42.541098,69.333304 l -0.06166,-6.361058 6.361061,-0.06174 c 1.634431,-0.01534 3.379397,0.796394 4.600957,1.945371 l 8.229235,8.059399 -0.185293,-19.839706 c -0.0087,-0.474894 -0.0498,-0.932989 -0.108062,-1.374112 z"
     style="stroke-width:7.905" />
</svg>
