<?xml version="1.0" encoding="UTF-8" standalone="no"?>
<!-- Created with Inkscape (http://www.inkscape.org/) and export_objects.py -->

<svg
   version="1.1"
   id="svg1"
   width="128"
   height="128"
   viewBox="0 0 128 128"
   sodipodi:docname="clip-note-symbolic.svg"
   inkscape:version="1.1.1 (3bf5ae0d25, 2021-09-20)"
   inkscape:export-filename="/home/eexpss/project/gnome-shell-clip-note/clip-note-128.png"
   inkscape:export-xdpi="96"
   inkscape:export-ydpi="96"
   xmlns:inkscape="http://www.inkscape.org/namespaces/inkscape"
   xmlns:sodipodi="http://sodipodi.sourceforge.net/DTD/sodipodi-0.dtd"
   xmlns="http://www.w3.org/2000/svg"
   xmlns:svg="http://www.w3.org/2000/svg">
  <defs
     id="defs9" />
  <sodipodi:namedview
     objecttolerance="10"
     gridtolerance="10"
     guidetolerance="10"
     id="namedview"
     showgrid="false"
     inkscape:zoom="2.5996111"
     inkscape:cx="83.474024"
     inkscape:cy="43.275704"
     inkscape:window-width="1920"
     inkscape:window-height="1008"
     inkscape:window-x="0"
     inkscape:window-y="34"
     inkscape:window-maximized="1"
     inkscape:current-layer="svg1"
     pagecolor="#ffffff"
     bordercolor="#666666"
     borderopacity="1.0"
     inkscape:pageshadow="2"
     inkscape:pageopacity="0.0"
     inkscape:pagecheckerboard="0"
     fit-margin-top="0"
     fit-margin-left="0"
     fit-margin-right="0"
     fit-margin-bottom="0"
     inkscape:snap-global="true"
     showguides="true">
    <inkscape:grid
       type="xygrid"
       id="grid"
       originx="-1.9872298"
       originy="-0.95865712" />
  </sodipodi:namedview>
  <path
     id="path1787"
     d="m 77.866579,9.2492225 c -2.249534,-0.029668 -4.54472,0.1967658 -6.700723,0.030877 H 23.982867 c -4.999922,0.3604681 -8.123655,5.7035635 -7.41094,10.3907565 l 0.247031,91.559154 c 0.450585,4.94758 5.472863,8.13103 10.128286,7.42637 l 77.073776,-0.24703 c 4.9347,-0.45058 8.11361,-5.47605 7.41095,-10.14372 L 111.18493,40.220778 C 110.44107,35.483072 107.42211,34.580239 103.0329,29.567552 98.643692,24.554863 84.258507,10.76229 84.258515,10.76229 82.319971,9.5621926 80.116104,9.2788861 77.866579,9.2492225 Z M 53.20976,30.966249 c 1.829652,0.10497 3.60476,0.429676 5.295735,0.957246 L 55.18601,44.290502 c -0.627183,-0.187728 -1.291203,-0.314998 -1.97625,-0.385985 z m -5.465567,0.355108 3.3658,12.536841 c -0.754691,0.06087 -1.487247,0.202795 -2.176959,0.416863 h -0.01581 L 42.463896,33.081454 c 1.658485,-0.799218 3.421728,-1.398713 5.280297,-1.760097 z m 15.624729,2.779103 c 1.521579,0.917845 2.924108,2.015956 4.184094,3.257726 l -8.87769,8.877689 C 58.181264,45.778524 57.633597,45.3927 57.038746,45.062476 Z m -25.675822,2.099766 9.078406,9.062963 c -0.648764,0.398578 -1.249536,0.867759 -1.775535,1.40499 L 34.543454,39.48883 c 0.932656,-1.20232 1.994274,-2.300621 3.149646,-3.288604 z m 33.179401,5.295735 c 0.940972,1.510966 1.710248,3.143538 2.269606,4.86343 L 60.88317,49.647996 C 60.646494,48.98011 60.349503,48.353575 59.987683,47.795261 Z m -9.495268,10.205483 h 12.783876 c 0.02767,0.412593 0.04269,0.832366 0.04664,1.250596 l 0.185293,19.839706 8.074832,-8.213793 c 1.199877,-1.171656 2.920219,-2.00755 4.554641,-2.022569 l 6.361054,-0.06174 0.06166,6.361057 c 0.01818,1.965627 -0.541256,3.503746 -1.744658,4.770793 L 68.247795,97.078008 44.378393,74.073219 C 43.152074,72.82894 42.559278,71.298917 42.541096,69.333306 l -0.06166,-6.361058 6.361061,-0.06174 c 1.634431,-0.01534 3.379397,0.796394 4.600957,1.945371 l 8.229235,8.059399 -0.185293,-19.839706 c -0.0087,-0.474894 -0.0498,-0.932989 -0.108062,-1.374112 z"
     style="stroke-width:7.905"
     sodipodi:nodetypes="sccccccccscsccccccccccccccccccccccccccccccccccccccccccccc" />
</svg>
