<?xml version="1.0" encoding="UTF-8" standalone="no"?>
<!-- Created with Inkscape (http://www.inkscape.org/) and export_objects.py -->

<svg
   version="1.1"
   id="svg1"
   width="16"
   height="16"
   viewBox="0 0 16 16"
   sodipodi:docname="clip-note-fragment-symbolic.svg"
   inkscape:version="1.1.1 (3bf5ae0d25, 2021-09-20)"
   inkscape:export-filename="/home/eexpss/project/gnome-shell-clip-note/clip-note-fragment-128.png"
   inkscape:export-xdpi="814.3006"
   inkscape:export-ydpi="814.3006"
   xmlns:inkscape="http://www.inkscape.org/namespaces/inkscape"
   xmlns:sodipodi="http://sodipodi.sourceforge.net/DTD/sodipodi-0.dtd"
   xmlns="http://www.w3.org/2000/svg"
   xmlns:svg="http://www.w3.org/2000/svg">
  <defs
     id="defs9" />
  <sodipodi:namedview
     objecttolerance="10"
     gridtolerance="10"
     guidetolerance="10"
     id="namedview"
     showgrid="true"
     inkscape:zoom="7.5653941"
     inkscape:cx="26.303983"
     inkscape:cy="6.5429506"
     inkscape:window-width="1920"
     inkscape:window-height="1008"
     inkscape:window-x="0"
     inkscape:window-y="34"
     inkscape:window-maximized="1"
     inkscape:current-layer="svg1"
     pagecolor="#ffffff"
     bordercolor="#666666"
     borderopacity="1.0"
     inkscape:pageshadow="2"
     inkscape:pageopacity="0.0"
     inkscape:pagecheckerboard="0"
     fit-margin-top="0"
     fit-margin-left="0"
     fit-margin-right="0"
     fit-margin-bottom="0"
     inkscape:snap-global="true">
    <inkscape:grid
       type="xygrid"
       id="grid"
       originx="-1.9872298"
       originy="-0.95865712" />
  </sodipodi:namedview>
  <path
     id="path1787"
     d="m 9.7541523,0.47936163 c -0.284571,-0.003753 -0.574917,0.0248913 -0.847656,0.003906 h -5.96875 c -0.632501,0.0456 -1.02766,0.72151307 -0.9375,1.31445317 l 0.03125,12.7714842 c 0.057,0.62588 0.692329,1.028593 1.28125,0.939453 l 9.7499997,-0.03125 c 0.624249,-0.057 1.026389,-0.692733 0.9375,-1.283203 L 13.968996,4.3973304 C 13.874895,3.7980003 13.49299,3.68379 12.937746,3.0496742 12.382502,2.4155583 10.562745,0.67076788 10.562746,0.67076788 10.317516,0.51895303 10.038722,0.48311414 9.7541523,0.47936163 Z M 6.6350113,3.8211585 c 0.231455,0.013279 0.45601,0.054355 0.669922,0.1210938 l -0.419922,1.5644531 c -0.07934,-0.023748 -0.16334,-0.039848 -0.25,-0.048828 z m -0.691406,0.044922 0.425781,1.5859375 c -0.09547,0.0077 -0.18814,0.025654 -0.27539,0.052734 h -0.002 l -0.81636,-1.4160154 c 0.209802,-0.1011028 0.432856,-0.1769402 0.667969,-0.2226561 z m 1.976562,0.3515625 c 0.192483,0.1161094 0.369906,0.2550228 0.529297,0.4121094 l -1.123047,1.1230469 c -0.0625,-0.057856 -0.131781,-0.1066635 -0.207031,-0.1484376 z m -3.248047,0.265625 1.148438,1.1464844 c -0.08207,0.050421 -0.158069,0.1097733 -0.224609,0.1777343 L 4.2736833,4.8992835 C 4.3916663,4.7471874 4.5259633,4.60825 4.6721203,4.483268 Z m 4.197266,0.6699219 c 0.119035,0.1911405 0.21635,0.3976643 0.28711,0.6152344 l -1.550782,0.4160156 c -0.02994,-0.084489 -0.06751,-0.163747 -0.113281,-0.234375 z m -1.201172,1.2910156 h 1.617188 c 0.0035,0.052194 0.0054,0.1052961 0.0059,0.1582031 l 0.02344,2.5097657 1.0214837,-1.0390626 C 10.488013,7.9248948 10.70564,7.8191524 10.912398,7.8172524 l 0.804687,-0.00781 0.0078,0.8046875 c 0.0023,0.248656 -0.06847,0.4432314 -0.220703,0.6035156 L 8.5373553,12.184439 5.5178243,9.2742835 C 5.3626923,9.1168795 5.2877023,8.9233282 5.2854023,8.6746742 l -0.0078,-0.8046876 0.804688,-0.00781 c 0.206759,-0.00194 0.427501,0.1007456 0.582031,0.2460937 l 1.041016,1.0195313 -0.02344,-2.5097657 c -0.0011,-0.060075 -0.0063,-0.1180251 -0.01367,-0.1738281 z" />
</svg>
